{"title":"cheating white wife fucked hard in unusual position and screamin","uid":10749032,"size":164349952,"categoryP":"porn","categoryS":"other","magnet":"?xt=urn:btih:e47cce86222493912d3425d056d484ea85b87dc4&amp;dn=cheating+white+wife+fucked+hard+in+unusual+position+and+screamin&amp;tr=udp%3A%2F%2Ftracker.openbittorrent.com%3A80&amp;tr=udp%3A%2F%2Fopen.demonii.com%3A1337&amp;tr=udp%3A%2F%2Ftracker.coppersurfer.tk%3A6969&amp;tr=udp%3A%2F%2Fexodus.desync.com%3A6969","seeders":3,"leechers":1,"uploader":"vpsr","files":1,"time":1407855218,"description":"cheating white wife fucked hard in unusual position and screaming loud in pain[VPSR] torrent\n\n &lt;a href=&quot;\nhttp://s25.postimg.org/hsyc58q73/image.jpg&quot; rel=&quot;nofollow&quot; target=&quot;_NEW&quot;&gt;\nhttp://s25.postimg.org/hsyc58q73/image.jpg&lt;/a&gt;\n\n &lt;a href=&quot;\nhttp://s25.postimg.org/tjc9mmizj/cheating_white_wife_fucked_hard_in_unusual_posit.jpg&quot; rel=&quot;nofollow&quot; target=&quot;_NEW&quot;&gt;\nhttp://s25.postimg.org/tjc9mmizj/cheating_white_wife_fucked_hard_in_unusual_posit.jpg&lt;/a&gt;\n\n\nFILE INFO\n\nGeneral\nComplete name : cheating white wife fucked hard in unusual position and screaming loud in pain[VPSR].flv\nFormat : MPEG-PS\nFile size : 157 MiB\nDuration : 12mn 7s\nOverall bit rate mode : Variable\nOverall bit rate : 1 807 Kbps\n\nVideo\nID : 224 (0xE0)\nFormat : MPEG Video\nFormat version : Version 2\nFormat profile : Main@Main\nFormat settings, BVOP : No\nFormat settings, Matrix : Default\nFormat settings, GOP : N=18\nDuration : 12mn 7s\nBit rate mode : Variable\nBit rate : 1 579 Kbps\nWidth : 720 pixels\nHeight : 480 pixels\nDisplay aspect ratio : 3:2\nFrame rate : 29.970 fps\nStandard : NTSC\nColor space : YUV\nChroma subsampling : 4:2:0\nBit depth : 8 bits\nScan type : Progressive\nCompression mode : Lossy\nBits/(Pixel*Frame) : 0.152\nTime code of first frame : 00:00:00:00\nTime code source : Group of pictures header\nStream size : 137 MiB (87%)\n\nAudio\nID : 189 (0xBD)-128 (0x80)\nFormat : AC-3\nFormat/Info : Audio Coding 3\nMode extension : CM (complete main)\nFormat settings, Endianness : Big\nMuxing mode : DVD-Video\nDuration : 12mn 7s\nBit rate mode : Constant\nBit rate : 192 Kbps\nChannel(s) : 2 channels\nChannel positions : Front: L R\nSampling rate : 48.0 KHz\nBit depth : 16 bits\nCompression mode : Lossy\nStream size : 16.7 MiB (11%)","torrent":{"xt":"urn:btih:e47cce86222493912d3425d056d484ea85b87dc4","amp;dn":"cheating+white+wife+fucked+hard+in+unusual+position+and+screamin","amp;tr":["udp%3A%2F%2Ftracker.openbittorrent.com%3A80","udp%3A%2F%2Fopen.demonii.com%3A1337","udp%3A%2F%2Ftracker.coppersurfer.tk%3A6969","udp%3A%2F%2Fexodus.desync.com%3A6969"],"infoHash":"e47cce86222493912d3425d056d484ea85b87dc4","infoHashBuffer":{"type":"Buffer","data":[228,124,206,134,34,36,147,145,45,52,37,208,86,212,132,234,133,184,125,196]},"announce":[],"urlList":[]}}